<?xml version="1.0" encoding="utf-8" standalone="no"?>
<!DOCTYPE svg PUBLIC "-//W3C//DTD SVG 1.1//EN"
  "http://www.w3.org/Graphics/SVG/1.1/DTD/svg11.dtd">
<svg xmlns:xlink="http://www.w3.org/1999/xlink" width="576pt" height="432pt" viewBox="0 0 576 432" xmlns="http://www.w3.org/2000/svg" version="1.1">
 <metadata>
  <rdf:RDF xmlns:dc="http://purl.org/dc/elements/1.1/" xmlns:cc="http://creativecommons.org/ns#" xmlns:rdf="http://www.w3.org/1999/02/22-rdf-syntax-ns#">
   <cc:Work>
    <dc:type rdf:resource="http://purl.org/dc/dcmitype/StillImage"/>
    <dc:date>2024-05-31T18:36:34.256951</dc:date>
    <dc:format>image/svg+xml</dc:format>
    <dc:creator>
     <cc:Agent>
      <dc:title>Matplotlib v3.7.1, https://matplotlib.org/</dc:title>
     </cc:Agent>
    </dc:creator>
   </cc:Work>
  </rdf:RDF>
 </metadata>
 <defs>
  <style type="text/css">*{stroke-linejoin: round; stroke-linecap: butt}</style>
 </defs>
 <g id="figure_1">
  <g id="patch_1">
   <path d="M 0 432 
L 576 432 
L 576 0 
L 0 0 
z
" style="fill: #ffffff"/>
  </g>
  <g id="axes_1">
   <g id="patch_2">
    <path d="M 254.182126 246.983896 
Q 282.308925 314.640895 310.006539 381.265518 
" clip-path="url(#p6dc254961e)" style="fill: none; stroke: #000000; stroke-linecap: round"/>
    <path d="M 310.629074 372.342938 
L 310.006539 381.265518 
L 303.241995 375.413941 
z
" clip-path="url(#p6dc254961e)" style="stroke: #000000; stroke-linecap: round"/>
   </g>
   <g id="patch_3">
    <path d="M 248.48181 221.557538 
Q 244.456537 136.130001 240.483887 51.819258 
" clip-path="url(#p6dc254961e)" style="fill: none; stroke: #000000; stroke-linecap: round"/>
    <path d="M 236.864855 59.99866 
L 240.483887 51.819258 
L 244.855989 59.622124 
z
" clip-path="url(#p6dc254961e)" style="stroke: #000000; stroke-linecap: round"/>
   </g>
   <g id="patch_4">
    <path d="M 315.972353 381.291825 
Q 317.671529 332.322525 319.331933 284.470587 
" clip-path="url(#p6dc254961e)" style="fill: none; stroke: #000000; stroke-linecap: round"/>
    <path d="M 315.056915 292.327064 
L 319.331933 284.470587 
L 323.052104 292.604487 
z
" clip-path="url(#p6dc254961e)" style="stroke: #000000; stroke-linecap: round"/>
   </g>
   <g id="patch_5">
    <path d="M 250.362792 45.459879 
Q 285.11027 71.706915 318.965624 97.280072 
" clip-path="url(#p6dc254961e)" style="fill: none; stroke: #000000; stroke-linecap: round"/>
    <path d="M 314.993047 89.266419 
L 318.965624 97.280072 
L 310.171156 95.649942 
z
" clip-path="url(#p6dc254961e)" style="stroke: #000000; stroke-linecap: round"/>
   </g>
   <g id="patch_6">
    <path d="M 313.534496 258.498204 
Q 294.705017 223.694477 276.407546 189.874096 
" clip-path="url(#p6dc254961e)" style="fill: none; stroke: #000000; stroke-linecap: round"/>
    <path d="M 276.696166 198.81371 
L 276.407546 189.874096 
L 283.732409 195.006968 
z
" clip-path="url(#p6dc254961e)" style="stroke: #000000; stroke-linecap: round"/>
   </g>
   <g id="patch_7">
    <path d="M 261.996278 188.092497 
Q 215.93901 253.904982 170.522786 318.801463 
" clip-path="url(#p6dc254961e)" style="fill: none; stroke: #000000; stroke-linecap: round"/>
    <path d="M 178.386914 314.540537 
L 170.522786 318.801463 
L 171.832522 309.953605 
z
" clip-path="url(#p6dc254961e)" style="stroke: #000000; stroke-linecap: round"/>
   </g>
   <g id="patch_8">
    <path d="M 256.415256 175.981795 
Q 159.784228 166.63509 64.266039 157.396025 
" clip-path="url(#p6dc254961e)" style="fill: none; stroke: #000000; stroke-linecap: round"/>
    <path d="M 71.843771 162.147654 
L 64.266039 157.396025 
L 72.613982 154.184817 
z
" clip-path="url(#p6dc254961e)" style="stroke: #000000; stroke-linecap: round"/>
   </g>
   <g id="patch_9">
    <path d="M 282.293512 173.583599 
Q 397.801249 140.224133 512.234851 107.174884 
" clip-path="url(#p6dc254961e)" style="fill: none; stroke: #000000; stroke-linecap: round"/>
    <path d="M 503.439102 105.551682 
L 512.234851 107.174884 
L 505.658839 113.237563 
z
" clip-path="url(#p6dc254961e)" style="stroke: #000000; stroke-linecap: round"/>
   </g>
   <g id="patch_10">
    <path d="M 171.18068 320.752643 
Q 205.701525 282.661467 239.471579 245.398732 
" clip-path="url(#p6dc254961e)" style="fill: none; stroke: #000000; stroke-linecap: round"/>
    <path d="M 231.135442 248.640464 
L 239.471579 245.398732 
L 237.063283 254.01268 
z
" clip-path="url(#p6dc254961e)" style="stroke: #000000; stroke-linecap: round"/>
   </g>
   <g id="patch_11">
    <path d="M 63.095387 157.751305 
Q 105.794257 163.407092 147.384773 168.91607 
" clip-path="url(#p6dc254961e)" style="fill: none; stroke: #000000; stroke-linecap: round"/>
    <path d="M 139.979285 163.900219 
L 147.384773 168.91607 
L 138.9288 171.83095 
z
" clip-path="url(#p6dc254961e)" style="stroke: #000000; stroke-linecap: round"/>
   </g>
   <g id="patch_12">
    <path d="M 321.83126 115.990712 
Q 299.996854 141.591749 278.887959 166.342119 
" clip-path="url(#p6dc254961e)" style="fill: none; stroke: #000000; stroke-linecap: round"/>
    <path d="M 287.122727 162.850904 
L 278.887959 166.342119 
L 281.035847 157.659575 
z
" clip-path="url(#p6dc254961e)" style="stroke: #000000; stroke-linecap: round"/>
   </g>
   <g id="patch_13">
    <path d="M 174.813227 171.589662 
Q 215.595714 174.027795 255.26216 176.399207 
" clip-path="url(#p6dc254961e)" style="fill: none; stroke: #000000; stroke-linecap: round"/>
    <path d="M 247.515127 171.928918 
L 255.26216 176.399207 
L 247.037709 179.91466 
z
" clip-path="url(#p6dc254961e)" style="stroke: #000000; stroke-linecap: round"/>
   </g>
   <g id="text_1">
    <g id="patch_14">
     <path d="M 273.84931 314.712745 
L 276.291717 320.587781 
Q 277.443344 323.357936 280.213498 322.206309 
L 289.150133 318.491115 
Q 291.920287 317.339488 290.768661 314.569334 
L 288.326253 308.694297 
Q 287.174627 305.924143 284.404472 307.075769 
L 275.467838 310.790964 
Q 272.697683 311.94259 273.84931 314.712745 
z
" clip-path="url(#p6dc254961e)" style="fill: #ffffff; stroke: #ffffff; stroke-linejoin: miter"/>
    </g>
    <g clip-path="url(#p6dc254961e)">
     <!-- 1 -->
     <g transform="translate(278.539816 312.762777) rotate(-292.573945) scale(0.1 -0.1)">
      <defs>
       <path id="DejaVuSans-31" d="M 794 531 
L 1825 531 
L 1825 4091 
L 703 3866 
L 703 4441 
L 1819 4666 
L 2450 4666 
L 2450 531 
L 3481 531 
L 3481 0 
L 794 0 
L 794 531 
z
" transform="scale(0.015625)"/>
      </defs>
      <use xlink:href="#DejaVuSans-31"/>
     </g>
    </g>
   </g>
   <g id="text_2">
    <g id="patch_15">
     <path d="M 236.476367 133.319879 
L 236.77583 139.675327 
Q 236.917031 142.672003 239.913706 142.530802 
L 249.581105 142.075282 
Q 252.577781 141.934081 252.43658 138.937406 
L 252.137116 132.581958 
Q 251.995916 129.585282 248.99924 129.726483 
L 239.331841 130.182003 
Q 236.335166 130.323204 236.476367 133.319879 
z
" clip-path="url(#p6dc254961e)" style="fill: #ffffff; stroke: #ffffff; stroke-linejoin: miter"/>
    </g>
    <g clip-path="url(#p6dc254961e)">
     <!-- 1 -->
     <g transform="translate(241.550425 133.080794) rotate(-272.697733) scale(0.1 -0.1)">
      <use xlink:href="#DejaVuSans-31"/>
     </g>
    </g>
   </g>
   <g id="text_3">
    <g id="patch_16">
     <path d="M 325.395542 335.774127 
L 325.616181 329.415454 
Q 325.720214 326.417258 322.722019 326.313225 
L 313.049715 325.977607 
Q 310.051519 325.873573 309.947485 328.871769 
L 309.726847 335.230442 
Q 309.622813 338.228638 312.621009 338.332672 
L 322.293313 338.668289 
Q 325.291509 338.772323 325.395542 335.774127 
z
" clip-path="url(#p6dc254961e)" style="fill: #ffffff; stroke: #ffffff; stroke-linejoin: miter"/>
    </g>
    <g clip-path="url(#p6dc254961e)">
     <!-- 1 -->
     <g transform="translate(320.31891 335.597974) rotate(-88.012703) scale(0.1 -0.1)">
      <use xlink:href="#DejaVuSans-31"/>
     </g>
    </g>
   </g>
   <g id="text_4">
    <g id="patch_17">
     <path d="M 277.847855 76.04526 
L 282.92475 79.88017 
Q 285.318571 81.688379 287.126781 79.294558 
L 292.960139 71.571991 
Q 294.768348 69.17817 292.374527 67.369961 
L 287.297631 63.535051 
Q 284.90381 61.726842 283.095601 64.120663 
L 277.262243 71.84323 
Q 275.454034 74.237051 277.847855 76.04526 
z
" clip-path="url(#p6dc254961e)" style="fill: #ffffff; stroke: #ffffff; stroke-linejoin: miter"/>
    </g>
    <g clip-path="url(#p6dc254961e)">
     <!-- 1 -->
     <g transform="translate(280.909567 71.991972) rotate(-322.93387) scale(0.1 -0.1)">
      <use xlink:href="#DejaVuSans-31"/>
     </g>
    </g>
   </g>
   <g id="text_5">
    <g id="patch_18">
     <path d="M 286.296482 224.62651 
L 289.324032 230.222522 
Q 290.75156 232.861113 293.390151 231.433585 
L 301.902356 226.82832 
Q 304.540947 225.400792 303.113419 222.762201 
L 300.08587 217.166189 
Q 298.658342 214.527598 296.019751 215.955126 
L 287.507545 220.560391 
Q 284.868954 221.987919 286.296482 224.62651 
z
" clip-path="url(#p6dc254961e)" style="fill: #ffffff; stroke: #ffffff; stroke-linejoin: miter"/>
    </g>
    <g clip-path="url(#p6dc254961e)">
     <!-- 1 -->
     <g transform="translate(290.764222 222.209378) rotate(-298.414233) scale(0.1 -0.1)">
      <use xlink:href="#DejaVuSans-31"/>
     </g>
    </g>
   </g>
   <g id="text_6">
    <g id="patch_19">
     <path d="M 220.537859 261.005554 
L 224.185904 255.792764 
Q 225.906003 253.334867 223.448106 251.614767 
L 215.518828 246.065655 
Q 213.060931 244.345555 211.340832 246.803452 
L 207.692787 252.016242 
Q 205.972688 254.474139 208.430585 256.194239 
L 216.359863 261.743351 
Q 218.81776 263.463451 220.537859 261.005554 
z
" clip-path="url(#p6dc254961e)" style="fill: #ffffff; stroke: #ffffff; stroke-linejoin: miter"/>
    </g>
    <g clip-path="url(#p6dc254961e)">
     <!-- 1 -->
     <g transform="translate(216.376077 258.093031) rotate(-55.014683) scale(0.1 -0.1)">
      <use xlink:href="#DejaVuSans-31"/>
     </g>
    </g>
   </g>
   <g id="text_7">
    <g id="patch_20">
     <path d="M 155.860791 174.13124 
L 162.193735 174.743799 
Q 165.179799 175.032628 165.468628 172.046564 
L 166.400403 162.413397 
Q 166.689232 159.427333 163.703168 159.138504 
L 157.370225 158.525946 
Q 154.384161 158.237117 154.095332 161.223181 
L 153.163557 170.856347 
Q 152.874727 173.842411 155.860791 174.13124 
z
" clip-path="url(#p6dc254961e)" style="fill: #ffffff; stroke: #ffffff; stroke-linejoin: miter"/>
    </g>
    <g clip-path="url(#p6dc254961e)">
     <!-- 1 -->
     <g transform="translate(156.349845 169.07515) rotate(-354.475212) scale(0.1 -0.1)">
      <use xlink:href="#DejaVuSans-31"/>
     </g>
    </g>
   </g>
   <g id="text_8">
    <g id="patch_21">
     <path d="M 396.917253 148.638879 
L 403.02993 146.873494 
Q 405.912136 146.041092 405.079734 143.158887 
L 402.394372 133.860773 
Q 401.56197 130.978567 398.679765 131.810969 
L 392.567087 133.576354 
Q 389.684882 134.408756 390.517284 137.290961 
L 393.202646 146.589076 
Q 394.035048 149.471281 396.917253 148.638879 
z
" clip-path="url(#p6dc254961e)" style="fill: #ffffff; stroke: #ffffff; stroke-linejoin: miter"/>
    </g>
    <g clip-path="url(#p6dc254961e)">
     <!-- 1 -->
     <g transform="translate(395.507806 143.758645) rotate(-16.109098) scale(0.1 -0.1)">
      <use xlink:href="#DejaVuSans-31"/>
     </g>
    </g>
   </g>
   <g id="text_9">
    <g id="patch_22">
     <path d="M 209.373572 290.283124 
L 213.646163 285.568638 
Q 215.660744 283.345698 213.437804 281.331117 
L 206.266507 274.831994 
Q 204.043567 272.817413 202.028986 275.040353 
L 197.756395 279.754838 
Q 195.741813 281.977778 197.964754 283.992359 
L 205.136051 290.491482 
Q 207.358991 292.506064 209.373572 290.283124 
z
" clip-path="url(#p6dc254961e)" style="fill: #ffffff; stroke: #ffffff; stroke-linejoin: miter"/>
    </g>
    <g clip-path="url(#p6dc254961e)">
     <!-- 1 -->
     <g transform="translate(205.609625 286.871976) rotate(-47.814965) scale(0.1 -0.1)">
      <use xlink:href="#DejaVuSans-31"/>
     </g>
    </g>
   </g>
   <g id="text_10">
    <g id="patch_23">
     <path d="M 101.613776 170.760888 
L 107.921185 171.596352 
Q 110.895209 171.990283 111.289141 169.01626 
L 112.559982 159.421935 
Q 112.953913 156.447911 109.97989 156.053979 
L 103.672481 155.218515 
Q 100.698457 154.824584 100.304525 157.798607 
L 99.033684 167.392932 
Q 98.639753 170.366956 101.613776 170.760888 
z
" clip-path="url(#p6dc254961e)" style="fill: #ffffff; stroke: #ffffff; stroke-linejoin: miter"/>
    </g>
    <g clip-path="url(#p6dc254961e)">
     <!-- 1 -->
     <g transform="translate(102.280793 165.725184) rotate(-352.454665) scale(0.1 -0.1)">
      <use xlink:href="#DejaVuSans-31"/>
     </g>
    </g>
   </g>
   <g id="text_11">
    <g id="patch_24">
     <path d="M 303.897204 149.098794 
L 308.025933 144.257823 
Q 309.972681 141.975243 307.690101 140.028494 
L 300.326403 133.748203 
Q 298.043823 131.801455 296.097075 134.084035 
L 291.968346 138.925006 
Q 290.021598 141.207586 292.304178 143.154335 
L 299.667876 149.434626 
Q 301.950456 151.381374 303.897204 149.098794 
z
" clip-path="url(#p6dc254961e)" style="fill: #ffffff; stroke: #ffffff; stroke-linejoin: miter"/>
    </g>
    <g clip-path="url(#p6dc254961e)">
     <!-- 1 -->
     <g transform="translate(300.032273 145.802503) rotate(-49.54007) scale(0.1 -0.1)">
      <use xlink:href="#DejaVuSans-31"/>
     </g>
    </g>
   </g>
   <g id="text_12">
    <g id="patch_25">
     <path d="M 211.951948 181.663015 
L 218.303108 182.042712 
Q 221.297761 182.221744 221.476793 179.227091 
L 222.054357 169.566215 
Q 222.233389 166.571562 219.238736 166.39253 
L 212.887576 166.012833 
Q 209.892922 165.833801 209.713891 168.828455 
L 209.136326 178.48933 
Q 208.957295 181.483984 211.951948 181.663015 
z
" clip-path="url(#p6dc254961e)" style="fill: #ffffff; stroke: #ffffff; stroke-linejoin: miter"/>
    </g>
    <g clip-path="url(#p6dc254961e)">
     <!-- 1 -->
     <g transform="translate(212.25509 176.592381) rotate(-356.578711) scale(0.1 -0.1)">
      <use xlink:href="#DejaVuSans-31"/>
     </g>
    </g>
   </g>
   <g id="PathCollection_1">
    <defs>
     <path id="m6b6893b428" d="M 0 13.228757 
C 3.508307 13.228757 6.873396 11.834891 9.354143 9.354143 
C 11.834891 6.873396 13.228757 3.508307 13.228757 0 
C 13.228757 -3.508307 11.834891 -6.873396 9.354143 -9.354143 
C 6.873396 -11.834891 3.508307 -13.228757 0 -13.228757 
C -3.508307 -13.228757 -6.873396 -11.834891 -9.354143 -9.354143 
C -11.834891 -6.873396 -13.228757 -3.508307 -13.228757 0 
C -13.228757 3.508307 -11.834891 6.873396 -9.354143 9.354143 
C -6.873396 11.834891 -3.508307 13.228757 0 13.228757 
z
" style="stroke: #87ceeb"/>
    </defs>
    <g clip-path="url(#p6dc254961e)">
     <use xlink:href="#m6b6893b428" x="249.104355" y="234.769682" style="fill: #87ceeb; stroke: #87ceeb"/>
     <use xlink:href="#m6b6893b428" x="315.513615" y="394.512397" style="fill: #87ceeb; stroke: #87ceeb"/>
     <use xlink:href="#m6b6893b428" x="239.808591" y="37.487603" style="fill: #87ceeb; stroke: #87ceeb"/>
     <use xlink:href="#m6b6893b428" x="319.829413" y="270.1335" style="fill: #87ceeb; stroke: #87ceeb"/>
     <use xlink:href="#m6b6893b428" x="269.580489" y="177.255211" style="fill: #87ceeb; stroke: #87ceeb"/>
     <use xlink:href="#m6b6893b428" x="162.298202" y="330.553795" style="fill: #87ceeb; stroke: #87ceeb"/>
     <use xlink:href="#m6b6893b428" x="49.983471" y="156.014533" style="fill: #87ceeb; stroke: #87ceeb"/>
     <use xlink:href="#m6b6893b428" x="526.016529" y="103.194637" style="fill: #87ceeb; stroke: #87ceeb"/>
     <use xlink:href="#m6b6893b428" x="330.41379" y="105.927618" style="fill: #87ceeb; stroke: #87ceeb"/>
     <use xlink:href="#m6b6893b428" x="161.610195" y="170.800334" style="fill: #87ceeb; stroke: #87ceeb"/>
    </g>
   </g>
   <g id="text_13">
    <g clip-path="url(#p6dc254961e)">
     <!-- to -->
     <g transform="translate(243.080918 238.080932) scale(0.12 -0.12)">
      <defs>
       <path id="DejaVuSans-74" d="M 1172 4494 
L 1172 3500 
L 2356 3500 
L 2356 3053 
L 1172 3053 
L 1172 1153 
Q 1172 725 1289 603 
Q 1406 481 1766 481 
L 2356 481 
L 2356 0 
L 1766 0 
Q 1100 0 847 248 
Q 594 497 594 1153 
L 594 3053 
L 172 3053 
L 172 3500 
L 594 3500 
L 594 4494 
L 1172 4494 
z
" transform="scale(0.015625)"/>
       <path id="DejaVuSans-6f" d="M 1959 3097 
Q 1497 3097 1228 2736 
Q 959 2375 959 1747 
Q 959 1119 1226 758 
Q 1494 397 1959 397 
Q 2419 397 2687 759 
Q 2956 1122 2956 1747 
Q 2956 2369 2687 2733 
Q 2419 3097 1959 3097 
z
M 1959 3584 
Q 2709 3584 3137 3096 
Q 3566 2609 3566 1747 
Q 3566 888 3137 398 
Q 2709 -91 1959 -91 
Q 1206 -91 779 398 
Q 353 888 353 1747 
Q 353 2609 779 3096 
Q 1206 3584 1959 3584 
z
" transform="scale(0.015625)"/>
      </defs>
      <use xlink:href="#DejaVuSans-74"/>
      <use xlink:href="#DejaVuSans-6f" x="39.208984"/>
     </g>
    </g>
   </g>
   <g id="text_14">
    <g clip-path="url(#p6dc254961e)">
     <!-- explore -->
     <g transform="translate(293.204865 397.823647) scale(0.12 -0.12)">
      <defs>
       <path id="DejaVuSans-65" d="M 3597 1894 
L 3597 1613 
L 953 1613 
Q 991 1019 1311 708 
Q 1631 397 2203 397 
Q 2534 397 2845 478 
Q 3156 559 3463 722 
L 3463 178 
Q 3153 47 2828 -22 
Q 2503 -91 2169 -91 
Q 1331 -91 842 396 
Q 353 884 353 1716 
Q 353 2575 817 3079 
Q 1281 3584 2069 3584 
Q 2775 3584 3186 3129 
Q 3597 2675 3597 1894 
z
M 3022 2063 
Q 3016 2534 2758 2815 
Q 2500 3097 2075 3097 
Q 1594 3097 1305 2825 
Q 1016 2553 972 2059 
L 3022 2063 
z
" transform="scale(0.015625)"/>
       <path id="DejaVuSans-78" d="M 3513 3500 
L 2247 1797 
L 3578 0 
L 2900 0 
L 1881 1375 
L 863 0 
L 184 0 
L 1544 1831 
L 300 3500 
L 978 3500 
L 1906 2253 
L 2834 3500 
L 3513 3500 
z
" transform="scale(0.015625)"/>
       <path id="DejaVuSans-70" d="M 1159 525 
L 1159 -1331 
L 581 -1331 
L 581 3500 
L 1159 3500 
L 1159 2969 
Q 1341 3281 1617 3432 
Q 1894 3584 2278 3584 
Q 2916 3584 3314 3078 
Q 3713 2572 3713 1747 
Q 3713 922 3314 415 
Q 2916 -91 2278 -91 
Q 1894 -91 1617 61 
Q 1341 213 1159 525 
z
M 3116 1747 
Q 3116 2381 2855 2742 
Q 2594 3103 2138 3103 
Q 1681 3103 1420 2742 
Q 1159 2381 1159 1747 
Q 1159 1113 1420 752 
Q 1681 391 2138 391 
Q 2594 391 2855 752 
Q 3116 1113 3116 1747 
z
" transform="scale(0.015625)"/>
       <path id="DejaVuSans-6c" d="M 603 4863 
L 1178 4863 
L 1178 0 
L 603 0 
L 603 4863 
z
" transform="scale(0.015625)"/>
       <path id="DejaVuSans-72" d="M 2631 2963 
Q 2534 3019 2420 3045 
Q 2306 3072 2169 3072 
Q 1681 3072 1420 2755 
Q 1159 2438 1159 1844 
L 1159 0 
L 581 0 
L 581 3500 
L 1159 3500 
L 1159 2956 
Q 1341 3275 1631 3429 
Q 1922 3584 2338 3584 
Q 2397 3584 2469 3576 
Q 2541 3569 2628 3553 
L 2631 2963 
z
" transform="scale(0.015625)"/>
      </defs>
      <use xlink:href="#DejaVuSans-65"/>
      <use xlink:href="#DejaVuSans-78" x="59.773438"/>
      <use xlink:href="#DejaVuSans-70" x="118.953125"/>
      <use xlink:href="#DejaVuSans-6c" x="182.429688"/>
      <use xlink:href="#DejaVuSans-6f" x="210.212891"/>
      <use xlink:href="#DejaVuSans-72" x="271.394531"/>
      <use xlink:href="#DejaVuSans-65" x="310.257812"/>
     </g>
    </g>
   </g>
   <g id="text_15">
    <g clip-path="url(#p6dc254961e)">
     <!-- seek -->
     <g transform="translate(225.824841 40.798853) scale(0.12 -0.12)">
      <defs>
       <path id="DejaVuSans-73" d="M 2834 3397 
L 2834 2853 
Q 2591 2978 2328 3040 
Q 2066 3103 1784 3103 
Q 1356 3103 1142 2972 
Q 928 2841 928 2578 
Q 928 2378 1081 2264 
Q 1234 2150 1697 2047 
L 1894 2003 
Q 2506 1872 2764 1633 
Q 3022 1394 3022 966 
Q 3022 478 2636 193 
Q 2250 -91 1575 -91 
Q 1294 -91 989 -36 
Q 684 19 347 128 
L 347 722 
Q 666 556 975 473 
Q 1284 391 1588 391 
Q 1994 391 2212 530 
Q 2431 669 2431 922 
Q 2431 1156 2273 1281 
Q 2116 1406 1581 1522 
L 1381 1569 
Q 847 1681 609 1914 
Q 372 2147 372 2553 
Q 372 3047 722 3315 
Q 1072 3584 1716 3584 
Q 2034 3584 2315 3537 
Q 2597 3491 2834 3397 
z
" transform="scale(0.015625)"/>
       <path id="DejaVuSans-6b" d="M 581 4863 
L 1159 4863 
L 1159 1991 
L 2875 3500 
L 3609 3500 
L 1753 1863 
L 3688 0 
L 2938 0 
L 1159 1709 
L 1159 0 
L 581 0 
L 581 4863 
z
" transform="scale(0.015625)"/>
      </defs>
      <use xlink:href="#DejaVuSans-73"/>
      <use xlink:href="#DejaVuSans-65" x="52.099609"/>
      <use xlink:href="#DejaVuSans-65" x="113.623047"/>
      <use xlink:href="#DejaVuSans-6b" x="175.146484"/>
     </g>
    </g>
   </g>
   <g id="text_16">
    <g clip-path="url(#p6dc254961e)">
     <!-- strange -->
     <g transform="translate(296.904725 273.44475) scale(0.12 -0.12)">
      <defs>
       <path id="DejaVuSans-61" d="M 2194 1759 
Q 1497 1759 1228 1600 
Q 959 1441 959 1056 
Q 959 750 1161 570 
Q 1363 391 1709 391 
Q 2188 391 2477 730 
Q 2766 1069 2766 1631 
L 2766 1759 
L 2194 1759 
z
M 3341 1997 
L 3341 0 
L 2766 0 
L 2766 531 
Q 2569 213 2275 61 
Q 1981 -91 1556 -91 
Q 1019 -91 701 211 
Q 384 513 384 1019 
Q 384 1609 779 1909 
Q 1175 2209 1959 2209 
L 2766 2209 
L 2766 2266 
Q 2766 2663 2505 2880 
Q 2244 3097 1772 3097 
Q 1472 3097 1187 3025 
Q 903 2953 641 2809 
L 641 3341 
Q 956 3463 1253 3523 
Q 1550 3584 1831 3584 
Q 2591 3584 2966 3190 
Q 3341 2797 3341 1997 
z
" transform="scale(0.015625)"/>
       <path id="DejaVuSans-6e" d="M 3513 2113 
L 3513 0 
L 2938 0 
L 2938 2094 
Q 2938 2591 2744 2837 
Q 2550 3084 2163 3084 
Q 1697 3084 1428 2787 
Q 1159 2491 1159 1978 
L 1159 0 
L 581 0 
L 581 3500 
L 1159 3500 
L 1159 2956 
Q 1366 3272 1645 3428 
Q 1925 3584 2291 3584 
Q 2894 3584 3203 3211 
Q 3513 2838 3513 2113 
z
" transform="scale(0.015625)"/>
       <path id="DejaVuSans-67" d="M 2906 1791 
Q 2906 2416 2648 2759 
Q 2391 3103 1925 3103 
Q 1463 3103 1205 2759 
Q 947 2416 947 1791 
Q 947 1169 1205 825 
Q 1463 481 1925 481 
Q 2391 481 2648 825 
Q 2906 1169 2906 1791 
z
M 3481 434 
Q 3481 -459 3084 -895 
Q 2688 -1331 1869 -1331 
Q 1566 -1331 1297 -1286 
Q 1028 -1241 775 -1147 
L 775 -588 
Q 1028 -725 1275 -790 
Q 1522 -856 1778 -856 
Q 2344 -856 2625 -561 
Q 2906 -266 2906 331 
L 2906 616 
Q 2728 306 2450 153 
Q 2172 0 1784 0 
Q 1141 0 747 490 
Q 353 981 353 1791 
Q 353 2603 747 3093 
Q 1141 3584 1784 3584 
Q 2172 3584 2450 3431 
Q 2728 3278 2906 2969 
L 2906 3500 
L 3481 3500 
L 3481 434 
z
" transform="scale(0.015625)"/>
      </defs>
      <use xlink:href="#DejaVuSans-73"/>
      <use xlink:href="#DejaVuSans-74" x="52.099609"/>
      <use xlink:href="#DejaVuSans-72" x="91.308594"/>
      <use xlink:href="#DejaVuSans-61" x="132.421875"/>
      <use xlink:href="#DejaVuSans-6e" x="193.701172"/>
      <use xlink:href="#DejaVuSans-67" x="257.080078"/>
      <use xlink:href="#DejaVuSans-65" x="320.556641"/>
     </g>
    </g>
   </g>
   <g id="text_17">
    <g clip-path="url(#p6dc254961e)">
     <!-- new -->
     <g transform="translate(257.179239 180.566461) scale(0.12 -0.12)">
      <defs>
       <path id="DejaVuSans-77" d="M 269 3500 
L 844 3500 
L 1563 769 
L 2278 3500 
L 2956 3500 
L 3675 769 
L 4391 3500 
L 4966 3500 
L 4050 0 
L 3372 0 
L 2619 2869 
L 1863 0 
L 1184 0 
L 269 3500 
z
" transform="scale(0.015625)"/>
      </defs>
      <use xlink:href="#DejaVuSans-6e"/>
      <use xlink:href="#DejaVuSans-65" x="63.378906"/>
      <use xlink:href="#DejaVuSans-77" x="124.902344"/>
     </g>
    </g>
   </g>
   <g id="text_18">
    <g clip-path="url(#p6dc254961e)">
     <!-- worlds -->
     <g transform="translate(142.651952 333.865045) scale(0.12 -0.12)">
      <defs>
       <path id="DejaVuSans-64" d="M 2906 2969 
L 2906 4863 
L 3481 4863 
L 3481 0 
L 2906 0 
L 2906 525 
Q 2725 213 2448 61 
Q 2172 -91 1784 -91 
Q 1150 -91 751 415 
Q 353 922 353 1747 
Q 353 2572 751 3078 
Q 1150 3584 1784 3584 
Q 2172 3584 2448 3432 
Q 2725 3281 2906 2969 
z
M 947 1747 
Q 947 1113 1208 752 
Q 1469 391 1925 391 
Q 2381 391 2643 752 
Q 2906 1113 2906 1747 
Q 2906 2381 2643 2742 
Q 2381 3103 1925 3103 
Q 1469 3103 1208 2742 
Q 947 2381 947 1747 
z
" transform="scale(0.015625)"/>
      </defs>
      <use xlink:href="#DejaVuSans-77"/>
      <use xlink:href="#DejaVuSans-6f" x="81.787109"/>
      <use xlink:href="#DejaVuSans-72" x="142.96875"/>
      <use xlink:href="#DejaVuSans-6c" x="184.082031"/>
      <use xlink:href="#DejaVuSans-64" x="211.865234"/>
      <use xlink:href="#DejaVuSans-73" x="275.341797"/>
     </g>
    </g>
   </g>
   <g id="text_19">
    <g clip-path="url(#p6dc254961e)">
     <!-- life -->
     <g transform="translate(40.845659 159.325783) scale(0.12 -0.12)">
      <defs>
       <path id="DejaVuSans-69" d="M 603 3500 
L 1178 3500 
L 1178 0 
L 603 0 
L 603 3500 
z
M 603 4863 
L 1178 4863 
L 1178 4134 
L 603 4134 
L 603 4863 
z
" transform="scale(0.015625)"/>
       <path id="DejaVuSans-66" d="M 2375 4863 
L 2375 4384 
L 1825 4384 
Q 1516 4384 1395 4259 
Q 1275 4134 1275 3809 
L 1275 3500 
L 2222 3500 
L 2222 3053 
L 1275 3053 
L 1275 0 
L 697 0 
L 697 3053 
L 147 3053 
L 147 3500 
L 697 3500 
L 697 3744 
Q 697 4328 969 4595 
Q 1241 4863 1831 4863 
L 2375 4863 
z
" transform="scale(0.015625)"/>
      </defs>
      <use xlink:href="#DejaVuSans-6c"/>
      <use xlink:href="#DejaVuSans-69" x="27.783203"/>
      <use xlink:href="#DejaVuSans-66" x="55.566406"/>
      <use xlink:href="#DejaVuSans-65" x="90.771484"/>
     </g>
    </g>
   </g>
   <g id="text_20">
    <g clip-path="url(#p6dc254961e)">
     <!-- civilizations -->
     <g transform="translate(491.054341 106.505887) scale(0.12 -0.12)">
      <defs>
       <path id="DejaVuSans-63" d="M 3122 3366 
L 3122 2828 
Q 2878 2963 2633 3030 
Q 2388 3097 2138 3097 
Q 1578 3097 1268 2742 
Q 959 2388 959 1747 
Q 959 1106 1268 751 
Q 1578 397 2138 397 
Q 2388 397 2633 464 
Q 2878 531 3122 666 
L 3122 134 
Q 2881 22 2623 -34 
Q 2366 -91 2075 -91 
Q 1284 -91 818 406 
Q 353 903 353 1747 
Q 353 2603 823 3093 
Q 1294 3584 2113 3584 
Q 2378 3584 2631 3529 
Q 2884 3475 3122 3366 
z
" transform="scale(0.015625)"/>
       <path id="DejaVuSans-76" d="M 191 3500 
L 800 3500 
L 1894 563 
L 2988 3500 
L 3597 3500 
L 2284 0 
L 1503 0 
L 191 3500 
z
" transform="scale(0.015625)"/>
       <path id="DejaVuSans-7a" d="M 353 3500 
L 3084 3500 
L 3084 2975 
L 922 459 
L 3084 459 
L 3084 0 
L 275 0 
L 275 525 
L 2438 3041 
L 353 3041 
L 353 3500 
z
" transform="scale(0.015625)"/>
      </defs>
      <use xlink:href="#DejaVuSans-63"/>
      <use xlink:href="#DejaVuSans-69" x="54.980469"/>
      <use xlink:href="#DejaVuSans-76" x="82.763672"/>
      <use xlink:href="#DejaVuSans-69" x="141.943359"/>
      <use xlink:href="#DejaVuSans-6c" x="169.726562"/>
      <use xlink:href="#DejaVuSans-69" x="197.509766"/>
      <use xlink:href="#DejaVuSans-7a" x="225.292969"/>
      <use xlink:href="#DejaVuSans-61" x="277.783203"/>
      <use xlink:href="#DejaVuSans-74" x="339.0625"/>
      <use xlink:href="#DejaVuSans-69" x="378.271484"/>
      <use xlink:href="#DejaVuSans-6f" x="406.054688"/>
      <use xlink:href="#DejaVuSans-6e" x="467.236328"/>
      <use xlink:href="#DejaVuSans-73" x="530.615234"/>
     </g>
    </g>
   </g>
   <g id="text_21">
    <g clip-path="url(#p6dc254961e)">
     <!-- out -->
     <g transform="translate(320.587853 109.238868) scale(0.12 -0.12)">
      <defs>
       <path id="DejaVuSans-75" d="M 544 1381 
L 544 3500 
L 1119 3500 
L 1119 1403 
Q 1119 906 1312 657 
Q 1506 409 1894 409 
Q 2359 409 2629 706 
Q 2900 1003 2900 1516 
L 2900 3500 
L 3475 3500 
L 3475 0 
L 2900 0 
L 2900 538 
Q 2691 219 2414 64 
Q 2138 -91 1772 -91 
Q 1169 -91 856 284 
Q 544 659 544 1381 
z
M 1991 3584 
L 1991 3584 
z
" transform="scale(0.015625)"/>
      </defs>
      <use xlink:href="#DejaVuSans-6f"/>
      <use xlink:href="#DejaVuSans-75" x="61.181641"/>
      <use xlink:href="#DejaVuSans-74" x="124.560547"/>
     </g>
    </g>
   </g>
   <g id="text_22">
    <g clip-path="url(#p6dc254961e)">
     <!-- and -->
     <g transform="translate(150.321757 174.111584) scale(0.12 -0.12)">
      <use xlink:href="#DejaVuSans-61"/>
      <use xlink:href="#DejaVuSans-6e" x="61.279297"/>
      <use xlink:href="#DejaVuSans-64" x="124.658203"/>
     </g>
    </g>
   </g>
  </g>
 </g>
 <defs>
  <clipPath id="p6dc254961e">
   <rect x="0" y="0" width="576" height="432"/>
  </clipPath>
 </defs>
</svg>
